# xmcd CD database file
#
# Track frame offsets:
#	150
#	23987
#	46320
#	67862
#	85357
#	105232
#	122835
#	143480
#	161430
#	183957
#
# Disc length: 2683 seconds
#
# Revision: 4
# Processed by: cddbd v1.5PL3 Copyright (c) Steve Scherf et al.
# Submitted via: CDex 1.50
#
DISCID=750a790a
DTITLE=南 翔子 - FEENA
DYEAR=1992
DGENRE=Pop
TTITLE0=女神たちの囁き
TTITLE1=風の踊り子
TTITLE2=Waiting For The Night
TTITLE3=フェアリーブルーの誘惑
TTITLE4=向日葵
TTITLE5=TERMINATION
TTITLE6=Tears of Love
TTITLE7=誰かがあなたを愛してる
TTITLE8=めぐり逢えるまで
TTITLE9=信じて欲しい
EXTD=YEAR: 1992
EXTT0=
EXTT1=
EXTT2=
EXTT3=
EXTT4=
EXTT5=
EXTT6=
EXTT7=
EXTT8=
EXTT9=
PLAYORDER=
